<?xml version="1.0" encoding="UTF-8"?>
<svg width="42px" height="30px" viewBox="0 0 42 30" version="1.1" xmlns="http://www.w3.org/2000/svg" xmlns:xlink="http://www.w3.org/1999/xlink">
    <!-- Generator: Sketch 51.2 (57519) - http://www.bohemiancoding.com/sketch -->
    <title>Artboard</title>
    <desc>Created with Sketch.</desc>
    <defs></defs>
    <g id="Artboard" stroke="none" stroke-width="1" fill="none" fill-rule="evenodd">
        <g id="article" transform="translate(1.000000, 1.000000)">
            <path d="M39.97953,22.9550134 L39.9984188,11 L29,11 L29,27.9799116 L34.92101,27.9825848 C37.5935859,27.7708164 39.7312936,25.6451912 39.97953,22.9550134 Z" id="Combined-Shape" stroke="#C3C9D8" stroke-width="2"></path>
            <path d="M31.3915853,27.9825018 C30.0543112,26.7292571 29.1668631,24.9818545 29,23 L29,0 L0.00072765,0 L0.01741523,22.9415498 C0.23022853,25.6273127 2.37583189,27.7729161 4.99933699,28.0000002 L31.3915853,27.9825018 Z" id="Path" stroke="#C3C9D8" stroke-width="2" fill="#FFFFFF" fill-rule="nonzero"></path>
            <rect id="Rectangle-10" fill="#9724FF" fill-rule="nonzero" x="16" y="4" width="9" height="2"></rect>
            <rect id="Rectangle-10" fill="#9724FF" fill-rule="nonzero" x="16" y="10" width="9" height="2"></rect>
            <rect id="Rectangle-10-Copy" fill="#9724FF" fill-rule="nonzero" x="4" y="16" width="9" height="2"></rect>
            <rect id="Rectangle-10-Copy" fill="#9724FF" fill-rule="nonzero" x="4" y="22" width="9" height="2"></rect>
            <rect id="Rectangle-10" fill="#9724FF" fill-rule="nonzero" x="16" y="16" width="9" height="2"></rect>
            <rect id="Rectangle-10" fill="#9724FF" fill-rule="nonzero" x="16" y="22" width="9" height="2"></rect>
            <rect id="Rectangle-7" stroke="#9724FF" stroke-width="2" x="5" y="5" width="7" height="6"></rect>
        </g>
    </g>
</svg>