<?xml version="1.0" encoding="UTF-8"?>
<svg width="9px" height="13px" viewBox="0 0 9 13" version="1.1" xmlns="http://www.w3.org/2000/svg" xmlns:xlink="http://www.w3.org/1999/xlink">
    <!-- Generator: Sketch 51.2 (57519) - http://www.bohemiancoding.com/sketch -->
    <title>help</title>
    <desc>Created with Sketch.</desc>
    <defs></defs>
    <g id="Page-1" stroke="none" stroke-width="1" fill="none" fill-rule="evenodd">
        <g id="help" fill="#9724FF" fill-rule="nonzero">
            <path d="M3.5575,13 C3.1154978,13 2.7415015,12.8470015 2.4355,12.541 C2.1294985,12.2349985 1.9765,11.8581689 1.9765,11.4105 C1.9765,10.9628311 2.1294985,10.5860015 2.4355,10.28 C2.7415015,9.9739985 3.1183311,9.821 3.566,9.821 C4.0136689,9.821 4.3904985,9.9739985 4.6965,10.28 C5.0025015,10.5860015 5.1555,10.9628311 5.1555,11.4105 C5.1555,11.8581689 5.0025015,12.2349985 4.6965,12.541 C4.3904985,12.8470015 4.0108356,13 3.5575,13 Z M0.6165,3.735 C0.5938332,2.6809947 0.9338298,1.8055035 1.6365,1.1085 C2.3391702,0.4114965 3.3081605,0.063 4.5435,0.063 C5.7788395,0.063 6.7761629,0.3916634 7.5355,1.049 C8.2948371,1.7063366 8.6745,2.6158275 8.6745,3.7775 C8.6745,4.9391725 8.3486699,5.7778308 7.697,6.2935 C7.0453301,6.8091692 6.1018395,7.0783332 4.8665,7.101 L4.8665,8.716 L2.1295,8.716 L2.1295,5.214 L3.2685,5.214 C4.1525044,5.214 4.8041646,5.112001 5.2235,4.908 C5.6428354,4.703999 5.8525,4.3130029 5.8525,3.735 C5.8525,3.3496647 5.7420011,3.0380012 5.521,2.8 C5.2999989,2.5619988 4.994002,2.443 4.603,2.443 C4.211998,2.443 3.9060011,2.5591655 3.685,2.7915 C3.4639989,3.0238345 3.3535,3.3383314 3.3535,3.735 L0.6165,3.735 Z" id="Shape"></path>
        </g>
    </g>
</svg>