<?xml version="1.0" encoding="UTF-8"?>
<svg width="72px" height="17px" viewBox="0 0 72 17" version="1.1" xmlns="http://www.w3.org/2000/svg" xmlns:xlink="http://www.w3.org/1999/xlink">
    <!-- Generator: Sketch 51.2 (57519) - http://www.bohemiancoding.com/sketch -->
    <title>Aakash logo</title>
    <desc>Created with Sketch.</desc>
    <defs>
        <linearGradient x1="50%" y1="0%" x2="50%" y2="100%" id="linearGradient-1">
            <stop stop-color="#FCD138" offset="0%"></stop>
            <stop stop-color="#F8A41A" offset="100%"></stop>
        </linearGradient>
        <linearGradient x1="50%" y1="0%" x2="50%" y2="100%" id="linearGradient-2">
            <stop stop-color="#B5EB45" offset="0%"></stop>
            <stop stop-color="#7ED321" offset="100%"></stop>
        </linearGradient>
    </defs>
    <g id="Aakash-logo" stroke="none" stroke-width="1" fill="none" fill-rule="evenodd">
        <g id="logo" transform="translate(-6.000000, 0.000000)"></g>
        <g id="Group" transform="translate(2.000000, 1.000000)">
            <g id="Group-2" transform="translate(0.045423, 0.000000)">
                <path d="M1.1493737,-5.14768038e-10 C3.17318089,-2.45338778e-10 5.19698808,2.40904822e-11 7.22079527,2.93519743e-10 C9.73283385,2.93478707e-10 12.2448724,2.93437672e-10 14.756911,2.93396636e-10 L14.756911,2.93397751e-10 C15.3916926,2.93387486e-10 15.9062847,0.514592133 15.9062847,1.1493737 C15.9062847,1.45882727 15.7815021,1.75520735 15.560163,1.97147227 L6.94322959,10.3908633 C6.93377462,10.4001015 6.92447972,10.4095022 6.91534905,10.419061 L1.9805086,15.5853317 C1.54204927,16.0443536 0.814497033,16.0610228 0.355475188,15.6225635 C0.128440124,15.4056987 2.38030816e-06,15.105398 2.33087989e-06,14.7914311 L2.0901656e-09,1.1493737 C-9.78444288e-08,0.514592132 0.514591953,-8.1680751e-08 1.14937352,-1.81615345e-07 C1.14937358,-1.81615355e-07 1.14937364,-1.81615359e-07 1.1493737,-1.81615359e-07 Z" id="Rectangle-4" fill="url(#linearGradient-1)"></path>
                <path d="M6.49832373,4.83599739 C7.77730979,4.83599739 9.05629585,4.83599739 10.3352819,4.83599739 C11.7789916,4.83599739 13.2227013,4.83599739 14.666411,4.83599739 L14.666411,4.83599739 C15.3011926,4.83599739 15.8157847,5.35058952 15.8157847,5.98537108 C15.8157847,6.29482465 15.6910021,6.59120474 15.469663,6.80746966 L10.1479976,12.0071364 C10.1385426,12.0163746 10.1292477,12.0257753 10.120117,12.0353342 L7.32945777,14.9568675 C6.89099845,15.4158894 6.16344621,15.4325586 5.70442436,14.9940993 C5.4773893,14.7772345 5.34895155,14.4769338 5.34895151,14.1629669 L5.34895004,5.98537108 C5.34894994,5.35058952 5.86354199,4.8359973 6.49832355,4.8359972 C6.49832361,4.8359972 6.49832367,4.8359972 6.49832373,4.8359972 Z" id="Rectangle-4" fill="url(#linearGradient-2)"></path>
                <path d="M5.98354062,4.83599739 C6.64811633,4.83599739 7.31269205,4.83599739 7.97726776,4.83599739 C8.73211095,4.83599739 9.48695415,4.83599739 10.2417973,4.83599739 L10.2417973,4.83599739 C10.5655359,4.83599739 10.8279779,5.09843937 10.8279779,5.42217797 C10.8279779,5.57972648 10.764558,5.73064272 10.652018,5.84089826 L7.88025296,8.55639919 C7.87543741,8.56111698 7.87070361,8.5659175 7.86605367,8.5707986 L6.40796135,10.1013738 C6.18466109,10.3357744 5.81362118,10.3447731 5.5792205,10.1214729 C5.46308686,10.0108389 5.39736082,9.85744904 5.39736079,9.69705299 L5.39736003,5.42217797 C5.39735998,5.09843937 5.65980193,4.83599734 5.98354052,4.83599729 C5.98354056,4.83599729 5.98354059,4.83599729 5.98354062,4.83599729 Z" id="Rectangle-4" fill="#FFFFFF"></path>
            </g>
        </g>
        <text id="AAKASH" font-family="DINCondensed-Bold, DIN Condensed" font-size="20" font-style="condensed" font-weight="bold" fill="#FACE00">
            <tspan x="21.21" y="15">AAKASH</tspan>
        </text>
    </g>
</svg>