<?xml version="1.0" encoding="UTF-8"?>
<svg width="131px" height="35px" viewBox="0 0 131 35" version="1.1" xmlns="http://www.w3.org/2000/svg" xmlns:xlink="http://www.w3.org/1999/xlink">
    <!-- Generator: Sketch 51.2 (57519) - http://www.bohemiancoding.com/sketch -->
    <title>Aakash logo Copy</title>
    <desc>Created with Sketch.</desc>
    <defs>
        <linearGradient x1="50%" y1="0%" x2="50%" y2="100%" id="linearGradient-1">
            <stop stop-color="#FCD138" offset="0%"></stop>
            <stop stop-color="#F8A41A" offset="100%"></stop>
        </linearGradient>
        <linearGradient x1="50%" y1="0%" x2="50%" y2="100%" id="linearGradient-2">
            <stop stop-color="#B5EB45" offset="0%"></stop>
            <stop stop-color="#7ED321" offset="100%"></stop>
        </linearGradient>
    </defs>
    <g id="Aakash-logo-Copy" stroke="none" stroke-width="1" fill="none" fill-rule="evenodd">
        <g id="logo" transform="translate(-6.000000, 0.000000)"></g>
        <g id="Group" transform="translate(9.000000, 3.000000)">
            <g id="Group-2" transform="translate(0.083365, 0.000000)">
                <path d="M2.06887266,-3.9577602e-10 C5.79667613,9.4342345e-11 9.52447961,5.8446071e-10 13.2522831,1.07457907e-09 C17.8805563,1.07450441e-09 22.5088295,1.07442974e-09 27.1371027,1.07435508e-09 L27.1371027,1.07435794e-09 C28.2797095,1.07434352e-09 29.2059754,0.926265839 29.2059754,2.06887266 C29.2059754,2.63037358 28.9777466,3.16775735 28.5736854,3.55765207 L12.7425248,18.8337713 C12.7254012,18.8502945 12.708564,18.867112 12.6920206,18.884216 L3.55596382,28.3299384 C2.7615935,29.1512338 1.45183765,29.1730609 0.630542251,28.3786906 C0.227548377,27.9889083 4.3795661e-06,27.4522592 4.29019131e-06,26.891604 L3.09277048e-09,2.06887265 C-1.7905171e-07,0.926265837 0.926265511,-1.48325009e-07 2.06887233,-3.3046949e-07 C2.06887244,-3.30469507e-07 2.06887255,-3.30469516e-07 2.06887266,-3.30469516e-07 Z" id="Rectangle-4" fill="url(#linearGradient-1)"></path>
                <path d="M11.8857692,8.76524526 C14.2466068,8.76524526 16.6074445,8.76524526 18.9682821,8.76524526 C21.6358576,8.76524526 24.3034331,8.76524526 26.9710086,8.76524526 L26.9710086,8.76524526 C28.1136154,8.76524526 29.0398812,9.6915111 29.0398812,10.8341179 C29.0398812,11.3956188 28.8116524,11.9330026 28.4075913,12.3228973 L18.6242166,21.7632664 C18.607093,21.7797896 18.5902558,21.796607 18.5737124,21.8137111 L13.3728588,27.190847 C12.5784885,28.0121424 11.2687326,28.0339695 10.4474372,27.2395992 C10.0444433,26.849817 9.81689934,26.3131679 9.81689925,25.7525127 L9.81689654,10.8341179 C9.81689636,9.6915111 10.743162,8.76524511 11.8857689,8.76524493 C11.885769,8.76524493 11.8857691,8.76524493 11.8857692,8.76524493 Z" id="Rectangle-4" fill="url(#linearGradient-2)"></path>
                <path d="M10.9608682,8.76524526 C12.1874563,8.76524526 13.4140445,8.76524526 14.6406326,8.76524526 C16.0351357,8.76524526 17.4296388,8.76524526 18.824142,8.76524526 L18.824142,8.76524526 C19.4068714,8.76524526 19.879267,9.23764084 19.879267,9.82037032 C19.879267,10.1062446 19.7632681,10.3798836 19.5578168,10.5786645 L14.4624075,15.5086422 C14.4536858,15.5170808 14.4451104,15.5256692 14.436685,15.5344036 L11.720267,18.350442 C11.3157002,18.7698456 10.6477403,18.7818733 10.2283367,18.3773065 C10.0221899,18.1784524 9.90574457,17.9043346 9.90574452,17.6179093 L9.90574312,9.82037032 C9.90574302,9.23764084 10.3781385,8.76524519 10.960868,8.76524509 C10.9608681,8.76524509 10.9608681,8.76524509 10.9608682,8.76524509 Z" id="Rectangle-4" fill="#FFFFFF"></path>
            </g>
        </g>
        <text id="AAKASH" font-family="Mohave-Regular, Mohave" font-size="27" font-weight="normal" fill="#FFFFFF">
            <tspan x="45.4575" y="26">AAKASH</tspan>
        </text>
    </g>
</svg>