<?xml version="1.0" encoding="UTF-8"?>
<svg width="19px" height="17px" viewBox="0 0 19 17" version="1.1" xmlns="http://www.w3.org/2000/svg" xmlns:xlink="http://www.w3.org/1999/xlink">
    <!-- Generator: Sketch 51.2 (57519) - http://www.bohemiancoding.com/sketch -->
    <title>page-end</title>
    <desc>Created with Sketch.</desc>
    <defs></defs>
    <g id="Page-1" stroke="none" stroke-width="1" fill="none" fill-rule="evenodd">
        <g id="page-end" fill="#9724FF" fill-rule="nonzero">
            <g id="CTA-Copy-4" transform="translate(9.500000, 8.500000) scale(-1, 1) translate(-9.500000, -8.500000) ">
                <g id="Group-7">
                    <g id="Group-10">
                        <path d="M6.94219625,2.38994862 L18.5880743,2.38994862 C19.6926438,2.38994862 20.5880743,3.28537912 20.5880743,4.38994862 C20.5880743,4.79453573 20.4653684,5.18960952 20.2361582,5.52300627 L14.4132191,13.9927357 C13.7874487,14.9029473 12.5422892,15.1335324 11.6320777,14.5077619 C11.4303256,14.3690574 11.255756,14.1944878 11.1170515,13.9927357 L5.2941124,5.52300627 C4.66834194,4.61279469 4.89892703,3.36763523 5.8091386,2.74186477 C6.14253535,2.51265451 6.53760914,2.38994862 6.94219625,2.38994862 Z" id="Rectangle-8-Copy" transform="translate(12.765042, 8.624907) rotate(90.000000) translate(-12.765042, -8.624907) "></path>
                        <rect id="Rectangle-7" x="0" y="0" width="3" height="17" rx="1.5"></rect>
                    </g>
                </g>
            </g>
        </g>
    </g>
</svg>